<svg width="455px" height="375px" viewBox="0 0 455 375" version="1.1" xmlns="http://www.w3.org/2000/svg" xmlns:xlink="http://www.w3.org/1999/xlink">
    <g id="Page-1" stroke="none" stroke-width="1" fill="none" fill-rule="evenodd">
        <g id="camera" fill="#333333">
            <path d="M417.5,80 L313.355,80 L302.052,34.785 C297.176,15.28 277.606,0 257.5,0 L197.5,0 C177.394,0 157.824,15.28 152.947,34.785 L141.645,80 L130,80 L130,57.5 C130,53.358 126.643,50 122.5,50 L62.5,50 C58.357,50 55,53.358 55,57.5 L55,80 L37.5,80 C16.822,80 0,96.823 0,117.5 L0,337.5 C0,358.177 16.822,375 37.5,375 L417.5,375 C438.178,375 455,358.177 455,337.5 L455,117.5 C455,96.823 438.178,80 417.5,80 Z M70,65 L115,65 L115,80 L70,80 L70,65 Z M37.5,95 L147.5,95 C150.941,95 153.941,92.658 154.776,89.319 L167.5,38.423 C170.674,25.727 184.412,15 197.5,15 L257.5,15 C270.588,15 284.326,25.727 287.5,38.423 L300.224,89.319 C301.059,92.658 304.059,95 307.5,95 L417.5,95 C429.906,95 440,105.094 440,117.5 L440,140 L305.832,140 C285.029,121.357 257.568,110 227.5,110 C197.432,110 169.972,121.357 149.168,140 L15,140 L15,117.5 C15,105.094 25.094,95 37.5,95 Z M227.5,330 C170.981,330 125,284.019 125,227.5 C125,170.981 170.981,125 227.5,125 C284.019,125 330,170.981 330,227.5 C330,284.019 284.019,330 227.5,330 Z M15,155 L135.094,155 C124.824,168.061 117.267,183.347 113.258,200 L99.315,200 C84.152,200 71.815,212.336 71.815,227.5 C71.815,242.664 84.152,255 99.315,255 L113.257,255 C117.266,271.653 124.823,286.939 135.094,300 L15,300 L15,155 Z M110.666,240 L99.316,240 C92.423,240 86.816,234.393 86.816,227.5 C86.816,220.607 92.423,215 99.316,215 L110.666,215 C110.229,219.108 110,223.278 110,227.5 C110,231.722 110.229,235.892 110.666,240 Z M417.5,360 L37.5,360 C25.094,360 15,349.906 15,337.5 L15,315 L149.168,315 C169.971,333.643 197.432,345 227.5,345 C257.568,345 285.028,333.643 305.832,315 L357.5,315 C361.643,315 365,311.642 365,307.5 C365,303.358 361.643,300 357.5,300 L319.906,300 C335.619,280.017 345,254.834 345,227.5 C345,200.166 335.619,174.983 319.906,155 L440,155 L440,300 L387.5,300 C383.357,300 380,303.358 380,307.5 C380,311.642 383.357,315 387.5,315 L440,315 L440,337.5 C440,349.906 429.906,360 417.5,360 Z" id="Shape" fill-rule="nonzero"></path>
            <path d="M178.424,95 L276.576,95 C278.886,95 281.066,93.936 282.487,92.116 C283.909,90.296 284.412,87.922 283.852,85.681 L271.353,35.681 C270.518,32.342 267.518,30 264.077,30 L190.923,30 C187.482,30 184.482,32.342 183.647,35.681 L171.148,85.681 C170.588,87.921 171.091,90.295 172.513,92.116 C173.934,93.936 176.114,95 178.424,95 Z M196.778,45 L258.221,45 L266.97,80 L188.029,80 L196.778,45 Z" id="Shape" fill-rule="nonzero"></path>
            <path d="M227.5,150 C184.767,150 150,184.766 150,227.5 C150,270.234 184.767,305 227.5,305 C270.233,305 305,270.234 305,227.5 C305,184.766 270.233,150 227.5,150 Z M227.5,290 C193.037,290 165,261.963 165,227.5 C165,193.037 193.037,165 227.5,165 C261.963,165 290,193.037 290,227.5 C290,261.963 261.963,290 227.5,290 Z" id="Shape" fill-rule="nonzero"></path>
            <path d="M271.229,208.975 C269.616,205.158 265.212,203.373 261.402,204.984 C257.586,206.596 255.799,210.995 257.411,214.811 C262.596,227.085 259.876,241.086 250.481,250.48 C244.355,256.606 236.194,259.98 227.501,259.98 C218.808,259.98 210.647,256.606 204.521,250.48 C201.591,247.551 196.843,247.551 193.914,250.48 C190.985,253.409 190.985,258.157 193.914,261.086 C202.874,270.045 214.802,274.98 227.502,274.98 C240.201,274.98 252.131,270.045 261.09,261.086 C274.819,247.356 278.8,226.901 271.229,208.975 Z" id="Path"></path>
            <path d="M199.216,206.716 C201.135,206.716 203.055,205.984 204.52,204.519 C213.913,195.126 227.912,192.405 240.189,197.59 C244.003,199.2 248.405,197.415 250.016,193.599 C251.627,189.783 249.84,185.383 246.025,183.772 C228.098,176.202 207.645,180.181 193.913,193.913 C190.984,196.842 190.984,201.591 193.913,204.52 C195.377,205.984 197.297,206.716 199.216,206.716 Z" id="Path"></path>
        </g>
    </g>
</svg>