<svg xmlns="http://www.w3.org/2000/svg" width="100%" height="63.45" viewBox="0 0 360.114 63.45">
  <text id="Hi_Angels" data-name="Hi, Angels" transform="translate(136.057 36.334)" fill="#fff" font-size="16" font-family="Helvetica"><tspan x="0" y="0">Hi, Angels</tspan></text>
  <g id="Group_41" data-name="Group 41" transform="translate(-100)">
    <path id="Path_7" data-name="Path 7" d="M3.316,0H313.408V8.314H0Z" transform="translate(146.592 52.948)" fill="#60bb46"/>
    <path id="Path_1" data-name="Path 1" d="M107.21,134.846a12.421,12.421,0,0,0-.566-2.151c-.019-.047-.17-.472-.387-.528a2.485,2.485,0,0,1-.858-.943l-.085-.16s-.67.783-1.349,1.443-1.962,2.17-1.962,2.17.019.321.773,1.339a20.83,20.83,0,0,0,1.736,2,.33.33,0,0,0,.208.132,2.125,2.125,0,0,1,.49.264.372.372,0,0,0,.453-.056c.151-.113.3-.472.547-.717a2.363,2.363,0,0,1,.868-.4,2.879,2.879,0,0,0,.132-.83,14.411,14.411,0,0,0,0-1.566Zm8.7,2.292c.047.028.189.056.368.113s.585.509.689.566a19.144,19.144,0,0,0,.877-2.434s-.057-.208-.66-.717a9.987,9.987,0,0,1-1.66-2.132s-.264-.359-.292-.425-.047.283-.283.67a2.431,2.431,0,0,0-.33.707,2.827,2.827,0,0,0-.057.943,6.322,6.322,0,0,0-.113,1.339c.076.509.151.764.255.773a5.841,5.841,0,0,1,.708.321,2.262,2.262,0,0,0,.274.066c.122.019.179.179.226.208Zm-8-16.283c-.151-.415.377-1.17.49-1.736a4.632,4.632,0,0,1,1.176-1.94,1.258,1.258,0,0,1,1.358-.132c.3.076.717-.151,1.339-.038a2.626,2.626,0,0,1,1.283.6c.3.245.208.66.547,1a3.026,3.026,0,0,1,.755,1.754,8.435,8.435,0,0,1-.094,1.471,4.2,4.2,0,0,1,.151.736c.076.547-.094.528-.132,1.075s.377.792.566,1.509a4.7,4.7,0,0,1,.019,1.453c.038.415.245.264.585.547a15.8,15.8,0,0,1,1.509,1.359,4.833,4.833,0,0,1,.207,1.471,6.707,6.707,0,0,1,.453,1.49,19.671,19.671,0,0,0,1.207,2.811,4.253,4.253,0,0,0,.434.849,2.443,2.443,0,0,1-.113,1.321,13.535,13.535,0,0,1-1.434,2.32.707.707,0,0,1-.17.453,1.673,1.673,0,0,1-1.075.358,2.363,2.363,0,0,0-.679.113,6.311,6.311,0,0,0,.623,1.245c.547.943,8.734,15.677,8.829,15.847s-1.094.642-1.3.755-.226.4-.226.641-.472.34-1.038.887-6.15,1.887-6.64,2.018-.245-.226-.34-.226-.3.17-.3.17,0,.019-.057.434-.3,1.905-.679,4.131a15.741,15.741,0,0,0-.3,3.3.829.829,0,0,1,.17.472c0,.264.019,2.018.056,3.094s.151,1.566-.038,1.905a3.261,3.261,0,0,1-2.717-.057c-.34-.453-.094-1.019-.038-1.83s.245-1.207.226-1.7a10.122,10.122,0,0,1,.038-1.3c.038-.509.151-.434.34-.735a5.7,5.7,0,0,0,.34-2.7,39.636,39.636,0,0,0-.509-4.848s-.358-.057-.472.17-1,.283-1.773.358-.924-.113-1.075-.4-1.17.189-1.17.189a3.021,3.021,0,0,0-.207.4c-.208.415-1.755,2.83-2.585,4.471a4.637,4.637,0,0,0-.717,2.4.591.591,0,0,1,.038.566c-.151.283-.434.849-.736,1.49s-.585,1.019-.773,1.49a18.757,18.757,0,0,1-.434,1.83c-.226.358-.472.151-1.415-.547a1.98,1.98,0,0,1-.924-1.528,2.508,2.508,0,0,1,.113-.887.857.857,0,0,1-.132-.17c-.038-.076.792-1.113.906-1.387a14.509,14.509,0,0,0,.49-1.49c.151-.566.821-.745.934-.8a.567.567,0,0,1,.273-.038,7.293,7.293,0,0,0,.632-1.811c.264-1.16,1.254-4.622,1.254-4.622l-.424-.09a6.126,6.126,0,0,0-.788.009,1.664,1.664,0,0,0-.7.071,6.257,6.257,0,0,1-1.877-.646c-.207-.132.377-3.6,1.547-7.791s3.32-12.233,3.32-12.233a4.649,4.649,0,0,1-.481.085c-.292.038-.4-.123-.585-.16a1.958,1.958,0,0,1-.585-.16.878.878,0,0,1-.387-.406,7.229,7.229,0,0,1-1.679-1.226,23.9,23.9,0,0,1-2.65-2.99.572.572,0,0,1-.16-.528,2.9,2.9,0,0,1,.547-1.349c.415-.622,2.283-3.15,2.613-3.82a12.166,12.166,0,0,1,1.273-1.773l-.038-.151a10.311,10.311,0,0,1,.67-.887,3.5,3.5,0,0,1,1.773-.7c.679-.113,1.368-.066,1.481-.1a2.046,2.046,0,0,0,.387-.283,3.18,3.18,0,0,1-.019-.962c.076-.472.283-.472.264-.792s-.453-.641-.321-1.132a4.422,4.422,0,0,0,.113-.943C108.307,121.5,108.062,121.27,107.911,120.855Z" transform="translate(265.009 -116.905)" fill="#fff" fill-rule="evenodd"/>
    <path id="Path_2" data-name="Path 2" d="M266.064,121.432a3.926,3.926,0,0,0,.26.657,6.55,6.55,0,0,0,.642,1.162c.122.153.7.459,1.04,2.354s-.4,2.813-.581,3.822a24.478,24.478,0,0,0,.321,4.212,19.328,19.328,0,0,0,.6,2.324,2.318,2.318,0,0,1,.031.489l-.077.168a7.777,7.777,0,0,1,.657,3.394c-.138,1.682-.978,5.015-.994,5.336a.682.682,0,0,0,.122.474,1.942,1.942,0,0,1,.612,1.162c.031.642-.26.81-.352,1.254s-.061,2.569-.122,2.637a.349.349,0,0,1-.267.069.28.28,0,0,1-.115-.038l-.053-1.269a4.458,4.458,0,0,0-.26.9c-.031.329-.076.7-.222.81a8.667,8.667,0,0,1-2.178.1c-.153-.069-.145-.2-.206-.329s-.336-.6-.138-.948.6-.726.642-.841a8.518,8.518,0,0,0,.428-1.98c.031-.764.29-1.789.321-2.354s-.153-4.051-.306-5.32a20.076,20.076,0,0,0-.352-2.507,2.164,2.164,0,0,1-.138-.4l-3.99.138s.657.443.749,2.217-.122,4.4.153,5.443.4,1.131.4,1.131a.926.926,0,0,1,.329.145,1.728,1.728,0,0,1,.5.994,3.431,3.431,0,0,1-.222.955c-.008.153.16,2.6.1,2.63s-.222.061-.226.031-.321-2.056-.42-2.24-.673.5-.864.948a7.6,7.6,0,0,0-.328,1.666c-.038.321-1.636.482-2.171.558s-.612-.2-.619-.26-.245-.313-.237-.6,1.307-1.345,1.307-1.345a6.625,6.625,0,0,0,.55-2.607,18.858,18.858,0,0,0-.765-4.25c-.428-1.712-.657-3.44-.9-4.495a22.958,22.958,0,0,1-.734-3.2c-.015-.749,1.3-5.336,1.513-6.345s.336-1.559.336-1.559a18.46,18.46,0,0,0,.734-2.415,4.155,4.155,0,0,0,.03-1.04,5.527,5.527,0,0,0,.214-1.926,17.306,17.306,0,0,1-.092-3.486,10.577,10.577,0,0,0,.122-1.223,3.465,3.465,0,0,1-.275-1.269c.015-.612,1.024-1.605,1.254-1.819a7.011,7.011,0,0,0,1.177-1.514,2.062,2.062,0,0,1,.413-.841c.275-.336.489-.428.489-.627a6.212,6.212,0,0,0-.092-.933c-.046-.184-.076-.184-.076-.184a.545.545,0,0,1-.428-.237c-.176-.245-.237-.466-.52-.887a2.006,2.006,0,0,1-.443-1.1,2.246,2.246,0,0,0-.008-.673,1.106,1.106,0,0,1-.084-.428,8.116,8.116,0,0,1,.046-.971.886.886,0,0,0,.038-.306,1.445,1.445,0,0,1,.168-.826,1.618,1.618,0,0,1,1.07-.826,4.6,4.6,0,0,1,1.361-.214,2.682,2.682,0,0,1,1.728,1.437c.184.642,0,.719.275,1.07a1.976,1.976,0,0,1,.566.978c.092.474.015.612.183.933s.336.321.336.81a3.547,3.547,0,0,1,0,.9,1.544,1.544,0,0,0,.138.948.948.948,0,0,1-.115.536c.183.122,1.009.887.978,1.193a1.672,1.672,0,0,0,.153.7,11.7,11.7,0,0,0,1.131,1.636,10.67,10.67,0,0,1,1.728,2.783c.382.978.367,1.1.214,1.269s-.306.229-.367.306a22.453,22.453,0,0,1-3.256,1.85c-1.391.612-2.568,1.086-2.568,1.086Zm-.16-1.316a11.011,11.011,0,0,0,1.575-.871,21.44,21.44,0,0,0,2.217-1.88s-.077-.107-.4-.52a18.612,18.612,0,0,1-1.177-2l-.122-.26s-.138.306-.26.55-.306.566-.443.795a5.434,5.434,0,0,0-.4.749,6.183,6.183,0,0,1-.627,1.055c-.229.321-.138.443-.26.795a2.45,2.45,0,0,0-.229.917A3.507,3.507,0,0,0,265.9,120.116Z" transform="translate(95.133 -93.719)" fill="#fff" fill-rule="evenodd"/>
    <path id="Path_3" data-name="Path 3" d="M364.932,128.306c0,.484.778,1.367.841,1.556s-.168-2.586-.273-3.3l-.063-.652s.063.652-.315.778-.063.358-.063.631-.126.5-.126.988Zm-6.785-8.593a1.508,1.508,0,0,0,.641-.683c.147-.284-.042-.273.147-.683s.378-.463.347-.767a5.9,5.9,0,0,1,.137-2.239c.273-.662.473-1.934,1.2-2.46a3.223,3.223,0,0,1,1.766-.42,1.71,1.71,0,0,1,1.4.273,2.834,2.834,0,0,1,.957,2.418c-.053.957-.463,1.818-.378,2.2a2.383,2.383,0,0,1,.2,1.167c-.105.452-.147.652.074.946a2.841,2.841,0,0,1,.284,1.072s1.651.7,1.934.862.452.242.442.357a3.711,3.711,0,0,1-.158.5,22.477,22.477,0,0,1,.294,3.5c.084,2.544-.126,2.229,0,3.2s.5,3.4.526,4.1.01,1.041.01,1.041a3.938,3.938,0,0,1,.189.736c-.032.074-.168.368-.168.368s.757,3.7.8,3.995.095.463-.01.515a8.378,8.378,0,0,1-1.02.105s-.1.6-.095.752-.116.137-.179.21a7.09,7.09,0,0,1-.746.41c-.105.058-.552-.021-.552-.089s.237-.121.237-.121-.079-.132-.021-.153.061-.047.155-.008a.83.83,0,0,0,.26.037l.071-.273s-.244-.042-.271-.037-.179.21-.31.137.084-.468.084-.468l-.368-.037s-1.1,4.137-1.2,4.715.242,3.837-.074,6.023a42.939,42.939,0,0,1-1.472,5.761,2.935,2.935,0,0,0,.084,1.451c.052.242-.158.557-.158.736s.021,1.966.084,2.554-.084.883-.4,1-1.987.242-2.124-.032.074-.852.105-1.2.252-1.251.252-1.609V158.9s-.21,0-.336-.525a11.435,11.435,0,0,1,.105-2.523,4.631,4.631,0,0,0-.021-1.724,34.8,34.8,0,0,1-1.619-4.415,19.183,19.183,0,0,1-.084-3.027c-.105-.925-.82-3.3-.946-4.184a2.894,2.894,0,0,0-.294-1.114s-.652-.063-.652-.273-.147-.988-.252-.946a4.861,4.861,0,0,1-1.24,0c-.252-.063-.231-.252-.231-.252s.484-3.575.441-4.058-.21-.568-.21-.568a3.742,3.742,0,0,0,.252-.652c.063-.273,1.072-3.827,1.2-4.562s.168-1.3.168-1.3.3-.347.242-.578-.4-2.754-.441-2.565-.189,2.712-.42,3.637-2.439,6.181-2.407,6.57a3.162,3.162,0,0,1,.042.946c-.063.4-.116.673-.116.673a.28.28,0,0,1,.158.142c.037.1.047.131.074.11s.11-.11.168-.058a1.092,1.092,0,0,1-.126.773c-.158.21-.221.252-.21.452s-.074.893-.116,1.23a1.067,1.067,0,0,0,.042.526s1.083-.221,1.177.032a31.483,31.483,0,0,0,1.009,4.415c.5,1.093,1.051,1.724.82,2.25s-2.439,1.388-2.8,1.346-1.093-1.051-2.313-.883-2.208.336-2.334-.358a23.089,23.089,0,0,1-.042-2.88,6.348,6.348,0,0,1-.189-1.135c-.042-.61,1.346-2.691,1.451-3.091s-.189-.925,0-1.009.694.231.694.231.715-.368.8-.757.2-.767.2-.767a.415.415,0,0,1-.179-.463,9.9,9.9,0,0,1,.673-1.241,23.741,23.741,0,0,0,.547-3.154,31.71,31.71,0,0,1,.946-4.5,23.782,23.782,0,0,0,.441-2.943c.189-1.156.473-3.679.484-3.953s-.189-.5-.116-.725a4.324,4.324,0,0,1,1.135-1.03,8.706,8.706,0,0,1,1.454-.3Zm-4.44,20.23c.01-.095.168-1.072.168-1.072s-.121.031-.171-.026-.071-.095-.1-.1a.315.315,0,0,1-.168-.05c-.055-.047-.079-.05-.079-.05s-.131-.021-.129-.008a.779.779,0,0,0,.034.076,5.588,5.588,0,0,0,.442,1.23Zm-.179.82a12.611,12.611,0,0,0-.578-1.65,2.426,2.426,0,0,0-.315.421c-.074.158-.442.589-.442.746s.284.263.652.326.6.168.683.158Zm8.628,7.895a2.329,2.329,0,0,0,0-.936l-.21-.641c-.021-.063-.052,1.041-.052,1.409s.105,1.125.105,1.177S362.073,149.12,362.157,148.658Z" transform="translate(-190.335 -104.746)" fill="#fff" fill-rule="evenodd"/>
    <path id="Path_4" data-name="Path 4" d="M486.165,120.852a6.167,6.167,0,0,0,.031,1.462,2.712,2.712,0,0,1,.456.071c.086.039.236.362.236.362l.409-1.085s.11-.142-.063-.566a15.961,15.961,0,0,1-.581-1.808,3.355,3.355,0,0,1-.086.432,5.637,5.637,0,0,0-.4,1.132Zm-5.6-8.384a1.858,1.858,0,0,0,.236-.731c.024-.377-.008-.409-.008-.409a2.209,2.209,0,0,1-.6-.707,5.671,5.671,0,0,1-.212-.558,2.86,2.86,0,0,1-.55-1,3.417,3.417,0,0,1,.071-1.918c.283-.534.283-.3.346-.676s.236-.424.472-.692.833-.252,1.619-.362a2.34,2.34,0,0,1,1.957,1.257c.252.527.11.809.244,1.022a15.448,15.448,0,0,0,.927,1.5c.362.456.346.267.393.849s-.094.927.251,1.242.314.047.55.755-.157,1.085.031,1.336.377.456.346.6.33.314.55.676a1.338,1.338,0,0,1,.236.613,9.419,9.419,0,0,1,.519,2.043,21.567,21.567,0,0,0,.723,3.348,3.505,3.505,0,0,1,.22,1.729,10.5,10.5,0,0,1-1.242,2.405,1.884,1.884,0,0,1-.1.346.353.353,0,0,1-.283.181c-.141.032-.354.2-.409.189a57.376,57.376,0,0,1-.66,6.523,51.026,51.026,0,0,1-1.965,5.847,13.421,13.421,0,0,1,.393,2.421c-.142.063-.818.22-.818.22s.236,1.037.471,2.892.252,4.464.377,4.779.534.739.6,1.195.031.582.094.676a2.05,2.05,0,0,1,.393.77c.094.409.016,1.478.094,2.154a5.485,5.485,0,0,1,.016,1.6,1.5,1.5,0,0,1-.519.88,3.723,3.723,0,0,1-1.383.016,2.613,2.613,0,0,1-.471-1.54,5.087,5.087,0,0,1,.157-1.006c0-.126.322-2.059.275-2.334s-.377-.55-.448-1.108a3.8,3.8,0,0,0-.236-1.195c-.181-.44-1.509-3.82-1.509-3.82l-1.195,3.474a22.3,22.3,0,0,0-.747,3.49.891.891,0,0,0,.079.558,12.394,12.394,0,0,1,.558,1.25c.047.22-.44.778-.605.864a2.493,2.493,0,0,1-1.509-.464c-.448-.346-.424-.605-.385-.825a7.487,7.487,0,0,0-.094-1.761c-.11-.44-.063-.534-.118-.472s-.519,1.588-.66,1.572-.3-.024-.251-.165a10.561,10.561,0,0,0,.519-2.161c.094-.959-.031-1.383.189-1.745a2.143,2.143,0,0,1,.99-.754c.094.031.542-.574.778-1.91a25.076,25.076,0,0,1,.6-3.977,12.812,12.812,0,0,0,.692-2.138,1.237,1.237,0,0,1-.252-.251,8.741,8.741,0,0,0,.283-2.279,17.487,17.487,0,0,0-.817-3.584,19.74,19.74,0,0,1-1.242-5.612,9.769,9.769,0,0,1,1.069-4.04s-1.257.031-1.6.079-.566.094-.566.094.016-.016-.047-.251-.079-.362-.157-.377a11.791,11.791,0,0,1-2.153-.833c-.786-.44-1.32-.849-1.761-1.022s-.519-.377-.55-.519a4.1,4.1,0,0,1,.267-1.022,28.18,28.18,0,0,1,2.169-2.782c.629-.676,1.509-2.028,1.808-2.405l.362-.456a4.541,4.541,0,0,1,1.037-.55,2.667,2.667,0,0,0,1.069-.3c.283-.2.676-.315.723-.393a3.269,3.269,0,0,1,.377-.344Zm-.157,8.958a10.335,10.335,0,0,0-.912-2.609c-.456-.582-.723-.817-.974-1.195a4.591,4.591,0,0,1-.362-.629,19.855,19.855,0,0,0-1.7,1.6c-.55.676-1.069,1.32-1.069,1.32s.817.8,1.32,1.226a6.182,6.182,0,0,0,1.116.723,1.906,1.906,0,0,1,.645.126,5.2,5.2,0,0,0,.707.2c.094.047.3.016.629-.283A7.08,7.08,0,0,1,480.412,121.426Z" transform="translate(-282.043 -97.745)" fill="#fff" fill-rule="evenodd"/>
    <path id="Path_5" data-name="Path 5" d="M596.552,132.812c-.022-.618.694-5.582.585-6.644a29.589,29.589,0,0,0-.585-2.992s-.141.748-.173,1.214-.206,1.431-.2,1.572-.065.282-.141.889a7.012,7.012,0,0,1-.509,1.593l-1.485,4.282a.508.508,0,0,0-.027.146c-.005.092-.249.032-.276.032s-.06.049-.087.146-.758,2.027-.834,2.265a4.8,4.8,0,0,0,.076,1.452,3.01,3.01,0,0,1-.5,1.545,3.938,3.938,0,0,0-.095.55.527.527,0,0,1,.214.057c.1.054.092.089.106.111s.076,0,.081.068-.377.141-.377.141a2.194,2.194,0,0,1,.249.022c.125.019.2,0,.26.06s.049.1.049.1a.087.087,0,0,1,.057.033c.016.027-.165.114-.165.114a.531.531,0,0,1,.106.078c.054.052.014.13.027.149s.054.054-.043.092a7.558,7.558,0,0,1-.908.016.853.853,0,0,0,.13.141.456.456,0,0,1,.127.238c.022.062-.027.146-.032.165s.041.057-.014.1a9.537,9.537,0,0,1-1.127-.8,9.272,9.272,0,0,1-.3-1.691c.043-.347.78-1.518.91-1.951a8.069,8.069,0,0,0,.3-1.431c.087-.65.25-2.146.25-2.146a2.271,2.271,0,0,1-.141-.347c0-.054-.3-.325-.358-.423s.791-2.493.921-3.23.629-2.168.715-2.536.087-.911.238-1.474.022-1.127.217-1.648a4.774,4.774,0,0,0,.13-1.518c.011-.238-.011-.488,0-.91a4.941,4.941,0,0,1,.184-1.073c.1-.455.043-1.528.1-1.778s.314-.444.585-.6.694-.347.694-.347a2.972,2.972,0,0,0,.542-1.279c.087-.694-.2-.911.087-1.626a10.767,10.767,0,0,0,.845-2.06c.39-1.366.239-3.664,1.192-4.4a1.6,1.6,0,0,1,1.756-.347,3.9,3.9,0,0,1,2.222.8,2.834,2.834,0,0,1,.737,2.233c-.011.39.227.683.314,1.5s-.445,1.756-.39,2.352a5.052,5.052,0,0,0,.78,1.81,4.761,4.761,0,0,0,1.039.405c.39.065.911,0,1.257.26s.412,1.019.65,2.081.672,4.6.715,4.791-.022,1.409-.043,1.821.39,2.1.434,2.8a7.312,7.312,0,0,0,.173,1.669c.152.5.78,2.634.78,2.634l-.726.336a6.3,6.3,0,0,0,.1.78c.076.379.109.683.174,1.214s.222,1.534.222,1.534a2.839,2.839,0,0,0,.07.276c.038.114-.038.266-.162.482s-.521,1.089-.6,1.138-.651.352-.732.379-.266.022-.412.054-.385-.016-.39-.125.1-.157.119-.2a.905.905,0,0,1,.255-.114.768.768,0,0,0,.146-.125l-.19-.146c-.092-.07-.011-.417.005-.639s.125-1.409.114-1.864a2.243,2.243,0,0,1,.282-.943c.032-.119.065-.867.065-.867s-.076-.054-.163-.119a9.159,9.159,0,0,1-.466-1.149s.13.932.173,1.106-.867.044-.867.044a7.88,7.88,0,0,1,.022,1.561,40.706,40.706,0,0,1-.8,4.661c-.022.152.911,3.6,1.214,4.77s-.325,4.336-.325,4.336l.282.108a2.142,2.142,0,0,1,.2.976c.043.759,1.127,8.195,1.127,8.195a4.217,4.217,0,0,1,.412,1.452,11.376,11.376,0,0,0,.889,3.577c.65,1.279,1.181,1.041,1.284,1.209s.011.488.011.515.005.043.005.092-.076.092-.461.119-2.656-.152-2.656-.152a1.811,1.811,0,0,1-.412-.488,5.588,5.588,0,0,1-.342-.916,7.222,7.222,0,0,1-.146.84,1.23,1.23,0,0,1-.526,0,5.5,5.5,0,0,1-.173-1.192c-.109-.791-.336-1.5-.38-1.886a2.212,2.212,0,0,1,.1-.813,1.894,1.894,0,0,0-.054-.347c-.043-.152-.13-.715-.228-1.084s-2.444-9.923-2.455-9.956.249-.163.249-.163.027-.022.005-.152-.146-2.5-.146-2.5-.163.412-.423,1.062-1.116,2.114-1.116,2.114-.011.26.087.347.011.206-.184.477-2.634,3.468-3.046,4.336-1,1.17-1.149,2.146a4.522,4.522,0,0,1-.813,1.821,1.929,1.929,0,0,0-.108.661,6.788,6.788,0,0,1-.488,1.4,4.667,4.667,0,0,0,.108,1.8c.022.054.965.954,1.149,1.181s.032.358.032.358a.385.385,0,0,1,.043.174c0,.1-.184.163-1.062.076a3.874,3.874,0,0,1-1.875-.64c-.162-.184-.119-.488-.152-1.16a4.388,4.388,0,0,0-.672-1.973c-.119.054-.71,1.7-.791,1.751s-.374-.135-.412-.206-.005-.119.049-.3a23.685,23.685,0,0,0,.428-2.4,2.562,2.562,0,0,1,.65-1.409,4.783,4.783,0,0,0,.607-1.062c.238-.5.607-1.431,1.127-2.905a59.745,59.745,0,0,1,2.807-5.669,2.378,2.378,0,0,0,.238-.466c.076-.174.423-.163.423-.163l.347-.228s.477-.672.715-1a6.484,6.484,0,0,0,.564-2.58c.065-1.149.433-3.674.39-3.794a31.712,31.712,0,0,0-1.929-4.065,3.692,3.692,0,0,1-.672-1.626,5.389,5.389,0,0,0-.553.022,5.151,5.151,0,0,1-.044-1.192Zm-4.747,5.585a2.858,2.858,0,0,0,.057-.428.106.106,0,0,0-.1.068,1,1,0,0,0-.021.328c.005.084.046.1.062.033Zm15.421-2.423a.462.462,0,0,0-.163.06s-.076.163-.081.19a2.739,2.739,0,0,0-.016.564,3.94,3.94,0,0,1-.022.64s.3-.228.325-.439.092-.569.081-.634S607.226,135.975,607.226,135.975Z" transform="translate(-415.541 -106.819)" fill="#fff" fill-rule="evenodd"/>
    <path id="Path_6" data-name="Path 6" d="M470.9,446.695a3.64,3.64,0,0,0,.074.853,10.99,10.99,0,0,1,1.558,3.024c.427,1.577-.2,5.844-.5,5.825a.856.856,0,0,0-.519.148l-.594,1.261a17.764,17.764,0,0,0-.13,2.653,8.578,8.578,0,0,0,.223,2.467c.2.39.52,1.076.52,1.076s.139-.12.25-.018A35.916,35.916,0,0,1,474.52,468a12.032,12.032,0,0,0,1.391,2.69c.668.779,1.633,2.05,1.772,2.217a1.56,1.56,0,0,1,.278.649,4.783,4.783,0,0,0,.223,1.419,2.572,2.572,0,0,1,.325,1.076c-.046.056-.186.065-.186.065a13.809,13.809,0,0,0-.844-1.456.186.186,0,0,0-.269.037,3.883,3.883,0,0,0-.186,1.224,1.759,1.759,0,0,1-.1,1.076,8.464,8.464,0,0,1-2.013,1.02c-.436.093-.724-.009-.77-.093s-.056-.157.074-.343,1.057-.974,1.095-1.206a10.4,10.4,0,0,0-.362-2.458,31.069,31.069,0,0,0-2.885-4.648,30.065,30.065,0,0,1-2.727-3.692.914.914,0,0,0,.111-.223s-.816-.937-.993-1.169-.26-.362-.26-.362l-.093.881s.148.1.176.176a6.954,6.954,0,0,1,.009.751,45.406,45.406,0,0,1-.983,6.169,5.7,5.7,0,0,0-.519,2.338,6.746,6.746,0,0,1,.519,1.475,4.458,4.458,0,0,1-.371,1.354,16.284,16.284,0,0,0-.241,1.716c.009.148-.014.158-.046.162s-.246.014-.241-.023-.032-1.753-.032-1.753-.241.464-.51.956-.38.844-.622,1.011a11.481,11.481,0,0,1-2.941.074c-.315-.083-.26-.167-.278-.241s-.046-.278.241-.427,1.243-.492,1.428-.946.315-1.763.575-2.5a11.252,11.252,0,0,0,.483-1.818c.037-.3.427-2.625.556-4.536s-.056-4.026.028-4.044a1.755,1.755,0,0,1,.176-.028,9.336,9.336,0,0,1,.065-2.078c.167-.77.7-4.536.863-5.223a5.314,5.314,0,0,0,.167-.816l.056-.26s-.2-.1-.195-.158.157-3.674.056-4.5-.093-1.159-.111-1.2-.408-.213-.455-.167a2.8,2.8,0,0,1-.505.371.6.6,0,0,1-.45-.135c-.014-.051-2.352-2.324-3.279-3.131a4.143,4.143,0,0,1-1.271-1.586.422.422,0,0,1,.028-.329c.014-.037,2.722-3.511,2.936-3.8s.25-.315.25-.39.13-.186.232-.334a5.311,5.311,0,0,0,.294-.615c.111-.612.575-.835.649-1.169s-.223-.148-.019-.742.408-.538.408-1.039a3.2,3.2,0,0,1,.2-1.057,1.1,1.1,0,0,1,.315-.724,6.278,6.278,0,0,0,.594-.983,2.047,2.047,0,0,1,.482-1.753,4.277,4.277,0,0,1,1.883-1.614,2.925,2.925,0,0,1,.965.148,4.386,4.386,0,0,1,.835.186,2.315,2.315,0,0,1,1.243,1.549,3.6,3.6,0,0,1,.019,2.263c-.149.631.093.668.111,1.224s-.278.686-.334,1.206a3.659,3.659,0,0,0,0,.872,2.181,2.181,0,0,1,1.058.5,18.639,18.639,0,0,1,1.03,3.07.41.41,0,0,1-.084.287,21.256,21.256,0,0,0,.881,3.534c.389.724.686,1.373,1.076,2.171s1.929,3.785,2.115,3.933a3.931,3.931,0,0,1,.612.761c.111.186.863,2.041.937,2.245a2.768,2.768,0,0,1,0,.8,10.973,10.973,0,0,1,1.048,1.141,7.978,7.978,0,0,1,.371,1.327.276.276,0,0,1-.046.269l.1.232a6.331,6.331,0,0,1,.872-.065.351.351,0,0,1,.167.158,5.142,5.142,0,0,1,.413,1.016.606.606,0,0,1-.084.325,16.663,16.663,0,0,1,1.076,2.18,12.368,12.368,0,0,1,.686,2.356c-.093.185-6.707,1.911-7.078,2.013a2.312,2.312,0,0,1-1-.093c-.278-.037-.779-.083-.826-.25a13.792,13.792,0,0,1-.009-3.135c.186-.76.315-1.855.315-1.855s.009-1.261.176-1.391a4.784,4.784,0,0,1,.779-.352,16.936,16.936,0,0,1,.584-2.635c.288-.659.306-.7.306-.7s-.06.042-.074-.056.088-.2.093-.241a4.974,4.974,0,0,0-.014-.863,6.955,6.955,0,0,1,.065-1.206,5.113,5.113,0,0,0-.659-1.6c-.427-.594-2.115-2.6-2.8-3.747s-.519-1.874-.89-2.616-1.113-2.634-1.132-2.43-.668,1.688-.723,2a1.408,1.408,0,0,0,0,.538,2.3,2.3,0,0,1,.018.482Zm6.737,9.747a5.413,5.413,0,0,0-.51.974,11.824,11.824,0,0,0-.454,2.106,1.386,1.386,0,0,0-.037.186,9.488,9.488,0,0,0,2.008-.38c.881-.278,1.765-.417,1.767-.434s-.049-.213-.049-.213-.04-.033-.1-.1-.311-1.162-.45-1.389a8.685,8.685,0,0,0-.659-.788.35.35,0,0,0-.107.023.39.39,0,0,1-.181-.009.63.63,0,0,1-.269.06.2.2,0,0,1-.162-.07.362.362,0,0,0-.116.014.323.323,0,0,1-.167-.019s-.037.019-.167.065a.657.657,0,0,1-.343-.028Zm-11.512-9.471a24.8,24.8,0,0,0-.649-2.774,7.291,7.291,0,0,1-.5-.946c-.121-.353-.167-.538-.167-.538-.353.631-2.31,2.514-2.4,2.69a.413.413,0,0,0,.046.38s1.846,2.486,2.17,2.82.677.677.677.677a2.93,2.93,0,0,1,.538-.464,1.791,1.791,0,0,0,.213-.074,8.784,8.784,0,0,0-.195-1.067c-.093-.269-.028-.39.037-.455S466.128,446.971,466.128,446.971Z" transform="translate(-77.929 -421.866)" fill="#fff" fill-rule="evenodd"/>
    <rect id="Rectangle_4" data-name="Rectangle 4" width="79.849" height="1.75" transform="translate(100 45.947)" fill="#fff"/>
    <path id="Path_10" data-name="Path 10" d="M.234,0H36.471V1.75H0Z" transform="translate(423.586 45.947)" fill="#60bb46"/>
    <rect id="Rectangle_6" data-name="Rectangle 6" width="60.158" height="1.75" transform="translate(399.956 40.696)" fill="#fff"/>
    <path id="Path_9" data-name="Path 9" d="M0,0H53.668l.307,1.75H0Z" transform="translate(100.057 40.696)" fill="#60bb46"/>
    <path id="Path_8" data-name="Path 8" d="M0,0H324.552l3.353,3.938H0Z" transform="translate(100.057 59.512)" fill="#fff"/>
  </g>
</svg>