<svg id="bca" xmlns="http://www.w3.org/2000/svg" width="54.44" height="18" viewBox="0 0 54.44 18">
<path id="Path_194" data-name="Path 194" d="M2.12,22.474A18.676,18.676,0,0,0,9.537,24.15h.2a18.682,18.682,0,0,0,7.618-1.676l.127-.055.045-.127a22.923,22.923,0,0,0,1.149-6.575V14.71a20.98,20.98,0,0,0-.2-2.6c-.091-.661-.218-1.322-.373-1.982s-.346-1.322-.561-1.982h0l-.045-.127-.127-.055A19.307,19.307,0,0,0,9.54,6.15H9.486A16.014,16.014,0,0,0,2.1,7.963l-.146.155A18.324,18.324,0,0,0,.41,15.089v.3a17.075,17.075,0,0,0,1.549,6.936Zm.364-14.02a15.4,15.4,0,0,1,7-1.695H9.54a18.676,18.676,0,0,1,7.445,1.695c.191.606.364,1.213.5,1.8s.282,1.3.385,1.934A21.492,21.492,0,0,1,17,21.974a18.054,18.054,0,0,1-7.245,1.567h-.2a18.136,18.136,0,0,1-7.066-1.576A16.321,16.321,0,0,1,1.025,15.1,17.582,17.582,0,0,1,2.483,8.46Z" transform="translate(-0.41 -6.15)" fill="#fff"/>
<path id="Path_195" data-name="Path 195" d="M24.4,24.52c.173-1.695.018-3.477.561-5.09s2.537-2.689,2.383-4.347a2.9,2.9,0,0,0-2.989-2.707A2.786,2.786,0,0,0,21.5,15.229c.036,1.695,1.858,2.574,2.337,4.114A22.775,22.775,0,0,1,24.4,24.52Z" transform="translate(-15.105 -10.488)" fill="#fff"/>
<path id="Path_196" data-name="Path 196" d="M33.626,29.94a12.009,12.009,0,0,0-.346,4.22,11.943,11.943,0,0,1,1.819-.988c1.276-.361,2.283.264,3.371-.506.552-.406.461-1.594.327-2.3a7.087,7.087,0,0,1-4.244,1.819c.452-.336.761-.909,1.485-.979a3,3,0,0,0,2.728-2.237,2.014,2.014,0,0,0-2.246-2.122A4.411,4.411,0,0,0,33.626,29.94Z" transform="translate(-23.292 -20.546)" fill="#fff"/>
<path id="Path_197" data-name="Path 197" d="M10.693,32.708c1.088.77,2.092.146,3.371.506a11.4,11.4,0,0,1,1.819.988,11.825,11.825,0,0,0-.336-4.22,4.353,4.353,0,0,0-2.886-3.074,2,2,0,0,0-2.246,2.122,3,3,0,0,0,2.728,2.237c.715.064,1.034.643,1.485.979a7.063,7.063,0,0,1-4.244-1.819C10.232,31.113,10.141,32.3,10.693,32.708Z" transform="translate(-7.28 -20.589)" fill="#fff"/>
<path id="Path_198" data-name="Path 198" d="M20.228,55.561a1.058,1.058,0,0,0-.3-.091l-.118-.018-.47-.082L19.1,56.737l.273.045.1-.57h.064a.682.682,0,0,1,.136.036.549.549,0,0,1,.073.073.771.771,0,0,0,.064.136.394.394,0,0,0,.045.091l.124.352.327.064-.118-.3a1.373,1.373,0,0,0-.118-.255.582.582,0,0,0-.127-.136.443.443,0,0,0,.3-.082.367.367,0,0,0,.136-.236.376.376,0,0,0-.018-.227A.3.3,0,0,0,20.228,55.561Zm-.127.355a.255.255,0,0,1-.045.1.173.173,0,0,1-.091.045.7.7,0,0,1-.164-.018h-.091l-.2-.036.055-.346.218.036H19.8a1.442,1.442,0,0,1,.182.036.17.17,0,0,1,.1.073.173.173,0,0,1,.018.115Z" transform="translate(-13.434 -40.45)" fill="#fff"/>
<path id="Path_199" data-name="Path 199" d="M15.143,54.837a.4.4,0,0,1,.3-.036.361.361,0,0,1,.182.109.285.285,0,0,1,.064.191l.282.018a.476.476,0,0,0-.1-.336.824.824,0,0,0-.709-.227.576.576,0,0,0-.3.173.837.837,0,0,0-.191.355.909.909,0,0,0-.018.382.643.643,0,0,0,.173.3.734.734,0,0,0,.346.182,1.027,1.027,0,0,0,.336.027.606.606,0,0,0,.3-.082l.146-.534-.6-.146-.055.227.3.082-.045.173a.961.961,0,0,1-.173.045.607.607,0,0,1-.182-.018.37.37,0,0,1-.246-.191.561.561,0,0,1,0-.388.524.524,0,0,1,.185-.309Z" transform="translate(-10.326 -39.871)" fill="#fff"/>
<path id="Path_200" data-name="Path 200" d="M29.056,56.644a.8.8,0,0,0-.264-.027h-.515L28.25,58h.282v-.524h.249a1.464,1.464,0,0,0,.218,0,1.1,1.1,0,0,0,.155-.064.579.579,0,0,0,.118-.136.549.549,0,0,0,.045-.218.385.385,0,0,0-.073-.273A.333.333,0,0,0,29.056,56.644Zm-.045.515a.206.206,0,0,1-.091.064.376.376,0,0,1-.127.018h-.246v-.4h.333a.167.167,0,0,1,.109.064.152.152,0,0,1,.036.127A.24.24,0,0,1,29.011,57.159Z" transform="translate(-19.811 -41.317)" fill="#fff"/>
<path id="Path_201" data-name="Path 201" d="M24.58,57.063a1.115,1.115,0,0,1-.027.236.212.212,0,0,1-.091.109.261.261,0,0,1-.182.036.276.276,0,0,1-.182-.073.246.246,0,0,1-.073-.146V57l.064-.752-.273-.027-.073.743a2.241,2.241,0,0,0,0,.355.406.406,0,0,0,.064.164.549.549,0,0,0,.155.127.715.715,0,0,0,.3.073.588.588,0,0,0,.264-.018.394.394,0,0,0,.182-.1A.4.4,0,0,0,24.8,57.4a1.185,1.185,0,0,0,.055-.355l.064-.724-.282-.027Z" transform="translate(-16.666 -41.042)" fill="#fff"/>
<path id="Path_202" data-name="Path 202" d="M34.812,57.041a.327.327,0,0,0,.136-.136.3.3,0,0,0,.036-.182.434.434,0,0,0-.055-.164.382.382,0,0,0-.273-.146.845.845,0,0,0-.218,0,.033.033,0,0,0-.027,0l-.552.045.127,1.385.464-.045h.018c.173-.018.3-.027.336-.036a.555.555,0,0,0,.182-.082.476.476,0,0,0,.109-.155.691.691,0,0,0,.027-.191.3.3,0,0,0-.091-.2A.355.355,0,0,0,34.812,57.041Zm-.652-.364.164-.018h.118a.762.762,0,0,1,.118,0,.124.124,0,0,1,.109.045.115.115,0,0,1,.045.1.112.112,0,0,1-.027.109.215.215,0,0,1-.109.064h-.136a.155.155,0,0,1-.064,0L34.187,57Zm.637.818a.167.167,0,0,1-.091.064,1.1,1.1,0,0,1-.191.027h-.064l-.2.018-.027-.373.218-.018h0a1.018,1.018,0,0,1,.246,0,.155.155,0,0,1,.091.055.2.2,0,0,1,.045.109A.182.182,0,0,1,34.8,57.5Z" transform="translate(-23.72 -41.172)" fill="#fff"/>
<path id="Path_203" data-name="Path 203" d="M39.133,56.794a.3.3,0,0,1-.437.036.643.643,0,0,1-.164-.355.534.534,0,0,1,.039-.382.337.337,0,0,1,.227-.155.3.3,0,0,1,.2.036.285.285,0,0,1,.127.146l.264-.109a.47.47,0,0,0-.182-.227.588.588,0,0,0-.437-.07.606.606,0,0,0-.424.273.758.758,0,0,0-.091.561.746.746,0,0,0,.273.479.627.627,0,0,0,.479.109.546.546,0,0,0,.488-.543l-.282-.036A.427.427,0,0,1,39.133,56.794Z" transform="translate(-26.771 -40.68)" fill="#fff"/>
<path id="Path_204" data-name="Path 204" d="M43.467,54.83l-.3.073L43,56.379l.3-.073V55.97l.209-.045.327-.091.2.282.3-.073-.821-1.131Zm.055.852-.182.045.055-.543.127.182.182.273Z" transform="translate(-30.09 -40.074)" fill="#fff"/>
<path id="Path_205" data-name="Path 205" d="M81.722,23.829a4.007,4.007,0,0,0-.943-1.713c-.1-.118-.206-.23-.321-.358L80.7,21.6a5.153,5.153,0,0,0,1.819-1.785,2.683,2.683,0,0,0,.361-1.767,2.634,2.634,0,0,0-1.376-1.9,5.247,5.247,0,0,0-2.728-.682c-1.534,0-3.065.021-4.6.027a.227.227,0,0,0-.23.146c-.449.864-.909,1.728-1.349,2.592l-.588,1.134h.967l-2.38,8.9h6.254a5.794,5.794,0,0,0,.691-.027,5.153,5.153,0,0,0,3.692-2.067,2.728,2.728,0,0,0,.485-2.337Zm-3.55.239a1.243,1.243,0,0,1-1.213.946c-.482-.024-.967,0-1.488,0l.221-.909c.064-.258.13-.512.185-.77a.155.155,0,0,1,.182-.146c.485,0,.967.021,1.452,0,.558-.033.788.406.661.879Zm.734-4.15a.979.979,0,0,1-1,.8c-.437-.024-.876,0-1.346,0a4.118,4.118,0,0,1,.061-.421c.091-.394.194-.785.285-1.179a.142.142,0,0,1,.161-.13h1.213a.709.709,0,0,1,.631.931Z" transform="translate(-49.323 -12.641)" fill="#fff"/>
<path id="Path_206" data-name="Path 206" d="M151.136,28.906l-.494-12.862h-6.063a.3.3,0,0,0-.318.185c-.537.94-1.079,1.873-1.619,2.81l-.43.749h1.116l-4.747,9.07h4.556c.1,0,.133-.045.167-.127.264-.627.537-1.252.8-1.879.039-.091.079-.149.194-.149h2.334c.127,0,.176.036.173.176V28.7c0,.161.042.209.206.209h4.126Zm-4.35-5.265h-1.3l1.264-2.959h.036Z" transform="translate(-96.696 -13.043)" fill="#fff"/>
<path id="Path_207" data-name="Path 207" d="M115.533,29.143a4.681,4.681,0,0,0,1.516-.327.424.424,0,0,0,.2-.2c.349-.788.688-1.579,1.031-2.367l.706-1.64h-.024l-.058.033a5.335,5.335,0,0,1-3.956.627,2.2,2.2,0,0,1-1.8-1.634,2.607,2.607,0,0,1,1.019-2.907,4.523,4.523,0,0,1,4.968-.4,7.092,7.092,0,0,1,.606.376l2.1-3.544-2.959-1.443a1.142,1.142,0,0,0-.082.133.239.239,0,0,1-.3.164,2.343,2.343,0,0,0-.4-.033,11.434,11.434,0,0,0-3.638.506,7.751,7.751,0,0,0-4.386,3.334,7.318,7.318,0,0,0-1.143,4.635,4.586,4.586,0,0,0,.973,2.561,5.935,5.935,0,0,0,3.2,1.967,7.208,7.208,0,0,0,2.434.155Z" transform="translate(-76.014 -12.819)" fill="#fff"/>
</svg>