<svg xmlns="http://www.w3.org/2000/svg" width="59" height="17.187" viewBox="0 0 59 17.187">
  <g id="Layer_2" data-name="Layer 2" transform="translate(136 -12)">
    <g id="Layer_1" data-name="Layer 1" transform="translate(-136 12)">
      <path id="Path_208" data-name="Path 208" d="M.062,39.724c0-.852,0-1.57-.062-2.209H1.616l.075,1.1h.046a2.563,2.563,0,0,1,2.294-1.265,2.137,2.137,0,0,1,2.055,1.37H6.12a2.8,2.8,0,0,1,.911-.928,2.481,2.481,0,0,1,1.491-.442c1.232,0,2.481.836,2.481,3.215v4.369H9.178V40.838c0-1.232-.426-1.967-1.311-1.967a1.429,1.429,0,0,0-1.311.983,2.668,2.668,0,0,0-.092.623v4.455H4.615v-4.3c0-1.032-.41-1.767-1.278-1.767A1.465,1.465,0,0,0,2,39.933a1.613,1.613,0,0,0-.1.61v4.389H.062Z" transform="translate(0 -27.916)" fill="#fff"/>
      <path id="Path_209" data-name="Path 209" d="M42.394,43.112a11.993,11.993,0,0,0,.1,1.78H40.81l-.121-.816h-.046a2.753,2.753,0,0,1-2.193.983,2.2,2.2,0,0,1-2.33-2.209c0-1.875,1.659-2.816,4.4-2.8v-.121c0-.488-.2-1.311-1.508-1.311a3.933,3.933,0,0,0-2,.547l-.364-1.219a5.333,5.333,0,0,1,2.678-.656c2.376,0,3.061,1.508,3.061,3.12ZM40.565,41.27c-1.311-.029-2.589.259-2.589,1.386a.983.983,0,0,0,1.055,1.065A1.518,1.518,0,0,0,40.506,42.7a1.364,1.364,0,0,0,.062-.41Z" transform="translate(-24.281 -27.876)" fill="#fff"/>
      <path id="Path_210" data-name="Path 210" d="M59.089,39.724c0-.852,0-1.57-.059-2.209h1.639l.092,1.114h.046a2.671,2.671,0,0,1,2.36-1.282c1.311,0,2.622.836,2.622,3.183v4.4H63.937V40.747c0-1.069-.4-1.875-1.423-1.875a1.57,1.57,0,0,0-1.462,1.1,1.911,1.911,0,0,0-.066.606v4.356h-1.9Z" transform="translate(-39.681 -27.917)" fill="#fff"/>
      <path id="Path_211" data-name="Path 211" d="M89.486,28.78v8.306c0,.76.033,1.583.062,2.088H87.873L87.8,38h-.03a2.668,2.668,0,0,1-2.422,1.341c-1.767,0-3.166-1.508-3.166-3.789,0-2.485,1.537-3.96,3.317-3.96a2.343,2.343,0,0,1,2.085.983h.03v-3.8Zm-1.872,6.067a2.593,2.593,0,0,0-.046-.488,1.639,1.639,0,0,0-1.613-1.311c-1.213-.01-1.868,1.049-1.868,2.442s.656,2.344,1.858,2.344a1.639,1.639,0,0,0,1.613-1.311,2.055,2.055,0,0,0,.062-.547Z" transform="translate(-55.243 -22.158)" fill="#fff"/>
      <path id="Path_212" data-name="Path 212" d="M108.51,45.278V37.86H110.4v7.418Z" transform="translate(-72.943 -28.262)" fill="#fff"/>
      <path id="Path_213" data-name="Path 213" d="M118.189,40.229c0-1.006,0-1.721-.059-2.393h1.639l.059,1.416h.062a2.042,2.042,0,0,1,2.026-1.416,2.114,2.114,0,0,1,.439,0v1.639a2.563,2.563,0,0,0-.547-.062,1.639,1.639,0,0,0-1.682,1.419,3.333,3.333,0,0,0-.062.58v3.842h-1.875Z" transform="translate(-79.41 -28.239)" fill="#fff"/>
      <path id="Path_214" data-name="Path 214" d="M133.65,45.278V37.86h1.888v7.418Z" transform="translate(-89.842 -28.262)" fill="#fff"/>
      <path id="Path_215" data-name="Path 215" d="M104.2,10.336c-.934-1.065-1.927-.583-2.717-.19-.328.164-2.73,1.524-2.73,1.524a2.334,2.334,0,0,1-2.74-.547,1.209,1.209,0,0,1-.1-.151l-.092-.161a7.325,7.325,0,0,0-.528-.787,4.435,4.435,0,0,0-.377-.433c-.9-.908-2.337-1.544-4.736-.39-1.137.656-4.841,2.776-4.841,2.776a2.294,2.294,0,0,1-2.8-.639.4.4,0,0,1-.039-.062l-.046-.079-.236-.384c-.1-.157-.213-.328-.328-.488A5.032,5.032,0,0,0,81.5,9.9c-.892-.9-2.321-1.537-4.7-.4l-4.805,2.734h0L69.55,13.633l1.269,1.557a2.608,2.608,0,0,0,3.088.656l4.314-2.507c3.661-2.009,5.467-.088,6.264,1.19.026.039.052.082.075.121h0l.023.046.092.148a2,2,0,0,0,1.734.954,2.144,2.144,0,0,0,1.075-.361l4.143-2.4h0c3.707-2.032,5.543,0,6.326,1.291a3.2,3.2,0,0,0,.2.328,1.9,1.9,0,0,0,1.606.856,2.432,2.432,0,0,0,1.029-.328l4.966-2.884a20.89,20.89,0,0,0-1.554-1.96Z" transform="translate(-46.753 -8.578)" fill="#fff"/>
    </g>
  </g>
</svg>